<?xml version="1.0" standalone="no"?><!DOCTYPE svg PUBLIC "-//W3C//DTD SVG 1.1//EN" "http://www.w3.org/Graphics/SVG/1.1/DTD/svg11.dtd"><svg t="1711002746572" class="icon" viewBox="0 0 1024 1024" version="1.1" xmlns="http://www.w3.org/2000/svg" p-id="10852" xmlns:xlink="http://www.w3.org/1999/xlink" width="200" height="200"><path d="M763.0848 534.528l-19.6608-5.3248 40.96-150.3232c-1.8432-22.528-58.5728-29.9008-86.2208-29.9008v-20.48c10.8544 0 106.7008 1.4336 106.7008 51.6096v1.4336L763.0848 534.528z" fill="" p-id="10853"></path><path d="M806.0928 555.8272l-7.9872-1.8432c-34.4064-7.7824-69.2224-7.7824-103.6288 0l-7.9872 1.8432-4.7104-19.8656 7.9872-1.8432c37.4784-8.3968 75.3664-8.3968 112.64 0l7.9872 1.8432-4.3008 19.8656zM501.1456 520.3968l-20.0704-4.5056 27.4432-122.88c-1.6384-23.3472-59.1872-34.816-87.2448-36.6592l1.4336-20.48c10.8544 0.8192 106.496 8.6016 106.496 58.1632v1.2288l-0.2048 1.024-27.8528 124.1088z" fill="" p-id="10854"></path><path d="M424.5504 541.9008l-4.7104-19.8656 7.9872-1.8432c37.4784-8.3968 75.3664-8.3968 112.64 0l7.9872 1.8432-4.7104 19.8656-7.9872-1.8432c-34.4064-7.7824-69.2224-7.7824-103.6288 0l-7.5776 1.8432z" fill="" p-id="10855"></path><path d="M767.7952 983.04H761.856c-2.048 0-4.096 0-6.5536-0.2048-2.2528 0-4.096-0.2048-5.9392-0.4096h-0.6144c-0.8192 0-1.6384-0.2048-2.4576-0.2048-1.2288 0-2.2528-0.2048-3.4816-0.2048l-5.7344-0.6144c-1.024-0.2048-2.2528-0.2048-3.2768-0.4096-0.8192-0.2048-1.6384-0.2048-2.4576-0.4096l-1.024-0.2048c-0.8192-0.2048-1.4336-0.2048-2.2528-0.4096-1.2288-0.2048-2.4576-0.4096-3.4816-0.6144-1.8432-0.4096-3.4816-0.8192-5.5296-1.2288-2.4576-0.4096-4.3008-1.024-6.3488-1.6384-2.2528-0.6144-4.3008-1.2288-5.9392-1.8432-0.8192-0.2048-1.4336-0.4096-2.2528-0.6144-1.024-0.2048-2.2528-0.6144-3.2768-1.024-2.048-0.6144-3.8912-1.2288-5.5296-1.8432-2.048-0.6144-3.8912-1.4336-5.7344-2.2528-1.6384-0.6144-3.2768-1.2288-4.5056-1.8432l-1.6384-0.8192c-1.4336-0.6144-2.8672-1.4336-4.096-1.8432-1.8432-0.6144-3.4816-1.6384-4.9152-2.2528l-1.024-0.6144c-1.024-0.4096-1.8432-1.024-2.8672-1.6384-0.6144-0.4096-1.4336-0.8192-2.048-1.024-2.048-1.024-4.096-2.2528-5.7344-3.2768-0.6144-0.4096-1.024-0.6144-1.6384-1.024-1.024-0.6144-2.2528-1.2288-3.2768-2.048-0.8192-0.6144-1.6384-1.024-2.4576-1.6384-0.6144-0.4096-1.4336-0.8192-2.048-1.4336-2.048-1.2288-3.6864-2.4576-5.3248-3.8912-0.6144-0.4096-1.2288-1.024-2.048-1.4336-0.8192-0.6144-1.4336-1.024-2.048-1.6384l-0.6144-0.6144c-0.6144-0.6144-1.2288-1.024-1.8432-1.4336-0.8192-0.6144-1.6384-1.2288-2.4576-2.048l-4.3008-3.6864c-0.8192-0.6144-1.6384-1.4336-2.2528-2.048-0.6144-0.6144-1.2288-1.024-1.8432-1.6384-1.6384-1.4336-3.2768-3.072-4.7104-4.7104l-4.096-4.3008c-0.6144-0.6144-1.024-1.2288-1.6384-1.8432-0.6144-0.8192-1.4336-1.4336-2.048-2.2528-0.4096-0.4096-0.6144-0.8192-1.024-1.2288-0.8192-1.024-1.8432-2.048-2.6624-3.2768-0.6144-0.8192-1.2288-1.4336-1.6384-2.048-0.4096-0.6144-1.024-1.2288-1.4336-1.8432l-0.2048-0.4096c-1.8432-2.4576-3.4816-4.7104-5.3248-7.168l-1.6384-2.2528c-2.048-3.072-4.3008-6.3488-6.144-9.6256-1.8432-3.072-3.8912-6.5536-5.7344-10.0352l-1.2288-2.4576c-1.2288-2.4576-2.4576-4.9152-3.6864-7.7824-1.4336-3.4816-3.072-6.7584-4.3008-10.24-1.024-2.8672-2.048-5.9392-2.8672-8.8064l-0.6144-1.8432c-1.2288-4.3008-2.048-7.9872-2.8672-10.8544-0.8192-3.2768-1.2288-6.144-1.8432-9.216l-0.2048-1.4336c-0.6144-3.8912-1.024-7.5776-1.6384-11.0592-0.4096-3.6864-0.6144-7.3728-0.8192-10.8544-0.2048-3.8912-0.2048-7.5776-0.2048-11.0592 0-3.8912 0.2048-7.5776 0.6144-11.264 0.2048-3.6864 0.6144-7.168 1.4336-11.0592 0.2048-1.024 0.4096-2.048 0.4096-2.8672 0.4096-2.4576 0.8192-5.12 1.4336-7.7824 0.2048-1.024 0.4096-2.048 0.8192-3.072 0.6144-2.2528 1.024-4.5056 1.8432-6.9632 0.8192-3.072 1.6384-6.144 3.072-10.0352 1.024-3.072 2.2528-6.3488 3.6864-10.0352 1.2288-3.072 2.6624-6.144 4.3008-9.6256 1.6384-3.4816 3.2768-6.3488 5.12-9.4208 1.8432-3.072 3.4816-6.144 5.5296-9.216l6.5536-9.216c1.8432-2.2528 3.6864-4.7104 5.9392-7.168 2.2528-2.6624 4.5056-5.3248 6.9632-7.5776 2.2528-2.2528 4.7104-4.7104 7.3728-7.168 2.2528-2.048 4.9152-4.5056 7.7824-6.5536 2.4576-2.048 5.12-4.096 8.192-6.144 3.072-2.2528 5.7344-3.8912 8.192-5.3248 2.6624-1.6384 5.5296-3.4816 8.8064-5.12 3.2768-1.6384 6.3488-3.2768 9.0112-4.5056l8.6016-3.6864c2.6624-1.024 5.12-1.8432 7.3728-2.6624 0.8192-0.2048 1.4336-0.4096 2.2528-0.6144l0.4096-0.2048 2.4576-0.6144 6.7584-1.8432c3.072-0.8192 6.3488-1.6384 9.8304-2.048 3.4816-0.6144 6.5536-1.024 9.6256-1.2288 3.2768-0.4096 6.144-0.6144 9.4208-0.8192 3.4816-0.2048 6.5536-0.2048 9.6256-0.2048 3.4816 0 6.7584 0.2048 9.6256 0.4096 1.4336 0.2048 3.072 0.2048 4.7104 0.4096 1.4336 0.2048 2.6624 0.2048 4.096 0.4096h0.8192c3.072 0.4096 6.144 0.8192 9.216 1.6384 3.072 0.6144 6.144 1.2288 9.216 2.2528 1.4336 0.4096 2.8672 0.8192 4.096 1.2288 1.4336 0.4096 2.6624 0.8192 4.096 1.2288 3.072 1.024 6.144 2.048 9.216 3.4816 2.6624 1.024 5.3248 2.2528 8.3968 3.6864l1.8432 0.8192c2.048 1.024 4.3008 2.048 6.3488 3.2768 2.4576 1.4336 5.12 2.8672 7.5776 4.5056 2.6624 1.6384 5.3248 3.4816 7.5776 5.12 2.4576 1.8432 4.9152 3.6864 7.3728 5.7344l6.144 5.5296c2.4576 2.2528 4.5056 4.5056 6.5536 6.7584 2.048 2.2528 3.8912 4.3008 5.7344 6.5536 1.8432 2.2528 3.4816 4.7104 5.12 6.9632 1.8432 2.4576 3.2768 4.9152 4.9152 7.168 1.4336 2.4576 2.8672 4.9152 4.3008 7.7824 1.4336 2.8672 2.8672 5.5296 3.8912 7.9872 0.4096 1.2288 1.024 2.2528 1.4336 3.4816 0.6144 1.2288 1.024 2.4576 1.6384 3.6864 1.2288 2.8672 2.048 5.5296 2.8672 7.9872 1.024 2.8672 1.6384 5.9392 2.2528 8.6016 0.8192 3.2768 1.4336 5.9392 1.8432 8.192 0.4096 2.4576 0.8192 5.5296 1.024 8.3968l0.6144 7.5776c0.2048 2.8672 0.2048 5.7344 0.2048 8.3968 0 2.8672-0.2048 5.7344-0.4096 8.192-0.2048 2.4576-0.4096 5.3248-0.8192 8.192-0.4096 2.4576-0.8192 5.12-1.2288 7.3728-0.4096 2.2528-1.024 4.5056-1.4336 6.5536l-0.2048 1.2288c-0.4096 1.6384-0.8192 3.2768-1.2288 4.5056-0.2048 0.8192-0.6144 1.6384-0.8192 2.6624l-0.2048 0.8192-2.4576 6.7584c-0.8192 2.048-1.6384 3.8912-2.4576 5.7344l-0.8192 1.8432c-1.2288 2.2528-2.4576 4.9152-3.4816 6.5536l-0.2048 0.2048c-1.2288 2.048-2.6624 4.3008-3.8912 6.3488-1.6384 2.4576-3.072 4.5056-4.5056 6.3488-1.4336 1.8432-3.072 3.8912-4.7104 5.7344-1.6384 1.8432-3.2768 3.8912-5.12 5.5296-1.6384 1.6384-3.4816 3.4816-5.3248 5.12-0.8192 0.8192-1.8432 1.6384-2.8672 2.4576-0.8192 0.6144-1.6384 1.2288-2.2528 1.8432l-0.4096 0.4096c-1.8432 1.4336-3.6864 2.8672-5.9392 4.3008-1.8432 1.2288-3.8912 2.4576-5.9392 3.6864-1.6384 1.024-3.2768 2.048-4.7104 2.6624l-1.4336 0.8192c-1.4336 0.8192-2.8672 1.4336-4.096 2.048-0.8192 0.4096-1.4336 0.6144-2.2528 1.024l-0.8192 0.4096c-1.024 0.4096-1.8432 0.8192-2.8672 1.2288l-3.072 1.2288c-2.4576 1.024-4.7104 1.6384-6.9632 2.2528-1.2288 0.4096-2.4576 0.6144-3.6864 1.024-0.8192 0.2048-1.8432 0.4096-2.6624 0.6144-2.048 0.6144-3.6864 0.8192-5.3248 1.2288-0.6144 0-1.2288 0.2048-1.6384 0.2048-2.4576 0.4096-4.9152 0.8192-7.168 1.024-2.2528 0.2048-4.7104 0.4096-7.168 0.4096h-6.144c-2.6624 0-4.9152-0.2048-7.168-0.4096h-0.6144c-1.8432-0.2048-3.8912-0.4096-6.144-0.8192-0.6144-0.2048-1.024-0.2048-1.4336-0.2048-1.4336-0.2048-3.072-0.6144-4.9152-1.024-0.8192-0.2048-1.8432-0.4096-2.8672-0.6144l-2.4576-0.6144c-1.8432-0.4096-3.4816-1.024-5.12-1.6384-0.4096-0.2048-1.024-0.4096-1.4336-0.6144-1.8432-0.6144-3.6864-1.4336-5.12-2.048l-1.6384-0.8192c-0.8192-0.4096-1.6384-0.8192-2.2528-1.024-1.024-0.4096-1.8432-0.8192-2.8672-1.2288-2.048-1.024-3.8912-2.2528-5.7344-3.2768-0.8192-0.6144-1.8432-1.2288-2.6624-1.6384-0.6144-0.4096-1.4336-0.8192-2.048-1.4336l-0.6144-0.4096c-1.024-0.8192-3.072-2.2528-4.9152-3.6864-0.2048-0.2048-0.6144-0.6144-1.024-0.8192-1.024-0.8192-2.4576-2.048-3.6864-3.072-2.6624-2.4576-5.3248-5.3248-8.192-8.6016-2.2528-2.8672-4.7104-5.9392-6.9632-9.4208-2.048-3.072-3.8912-6.5536-5.5296-10.24-1.6384-3.6864-3.072-7.168-4.096-10.6496-1.2288-3.4816-2.048-7.3728-2.6624-10.8544-0.6144-3.8912-1.024-7.3728-1.2288-10.4448-0.2048-3.8912 0-7.7824 0.2048-10.8544 0.2048-3.8912 1.024-7.3728 1.6384-10.4448 0.6144-3.2768 1.6384-6.5536 2.8672-9.8304v-0.2048c1.2288-3.072 2.4576-5.9392 3.6864-8.6016l0.2048-0.2048c1.2288-2.6624 2.8672-4.9152 4.096-7.168l1.024-1.4336c1.8432-2.6624 3.6864-4.9152 5.7344-7.168 2.4576-2.6624 4.7104-4.9152 6.9632-6.7584 2.2528-1.8432 4.5056-3.4816 7.168-5.12 2.8672-1.8432 5.5296-3.072 7.7824-4.096 2.6624-1.2288 5.5296-2.2528 8.3968-3.072 2.4576-0.6144 5.12-1.4336 7.9872-1.6384 2.6624-0.4096 5.5296-0.6144 8.192-0.6144 2.2528 0 4.9152 0 7.9872 0.4096 2.4576 0.2048 5.12 0.8192 7.5776 1.6384 2.048 0.6144 4.5056 1.4336 6.9632 2.4576 2.4576 1.024 4.5056 2.2528 6.3488 3.2768 2.2528 1.4336 4.096 2.6624 5.7344 4.096 1.6384 1.4336 3.072 2.8672 4.5056 4.096l0.4096 0.4096c3.072 3.2768 5.5296 6.7584 7.3728 10.6496 1.6384 3.2768 2.8672 6.9632 3.6864 11.4688v0.6144c0.6144 3.8912 0.6144 7.7824 0 11.264-1.024 5.5296-6.144 9.4208-11.8784 8.3968-5.5296-1.024-9.4208-6.144-8.3968-11.8784 0.2048-1.4336 0.2048-3.072 0-4.7104-0.6144-2.4576-1.024-4.3008-1.8432-5.9392-1.024-2.048-2.2528-3.8912-3.8912-5.7344l-3.072-3.072c-1.024-0.8192-2.048-1.6384-3.2768-2.4576-1.024-0.6144-2.2528-1.2288-3.8912-2.048-1.2288-0.6144-2.4576-1.024-4.5056-1.6384-1.4336-0.4096-2.8672-0.6144-4.3008-0.8192l-0.8192-0.2048c-1.4336-0.2048-2.6624-0.2048-4.7104-0.2048-1.6384 0-3.2768 0.2048-4.9152 0.4096l-0.8192 0.2048c-1.4336 0.2048-3.072 0.6144-4.9152 1.024-1.6384 0.4096-3.4816 1.024-5.12 1.8432-1.8432 0.8192-3.4816 1.6384-5.3248 2.8672-2.048 1.2288-3.8912 2.4576-5.5296 3.8912-1.4336 1.024-2.8672 2.4576-4.5056 4.3008-1.4336 1.6384-2.8672 3.2768-4.3008 5.3248l-0.4096 0.8192c-1.024 1.6384-2.2528 3.4816-3.072 5.12-1.024 2.4576-2.2528 4.7104-3.072 7.168-0.8192 2.4576-1.6384 4.9152-2.048 7.168-0.6144 2.4576-1.024 5.12-1.2288 7.5776-0.2048 2.6624-0.4096 5.5296-0.2048 7.9872 0.2048 2.8672 0.4096 5.5296 0.8192 8.192v0.6144c0.2048 2.2528 1.024 4.9152 1.8432 7.5776 0.8192 2.8672 1.8432 5.5296 3.2768 8.3968 1.4336 2.8672 2.8672 5.5296 4.3008 7.7824 1.8432 2.6624 3.4816 5.3248 5.3248 7.3728 2.2528 2.6624 4.3008 4.9152 6.5536 6.9632l0.2048 0.2048c0.4096 0.4096 1.4336 1.2288 2.2528 1.8432 0.4096 0.4096 0.8192 0.6144 1.2288 1.024 0.8192 0.6144 2.048 1.6384 3.4816 2.6624 0.8192 0.4096 1.6384 1.024 2.2528 1.4336 0.6144 0.4096 1.4336 0.8192 2.048 1.4336 1.4336 0.8192 2.8672 1.8432 4.096 2.4576 0.8192 0.4096 1.6384 0.8192 2.2528 1.024 0.8192 0.4096 1.8432 0.8192 2.6624 1.2288l1.2288 0.4096c1.2288 0.6144 2.048 1.024 3.072 1.2288 0.8192 0.2048 1.4336 0.4096 2.2528 0.8192 0.8192 0.4096 1.8432 0.6144 2.4576 0.8192 1.024 0.2048 2.048 0.6144 3.2768 0.8192l2.4576 0.6144 1.024 0.2048c0.6144 0.2048 1.4336 0.4096 2.4576 0.6144 0.6144 0.2048 1.2288 0.2048 2.048 0.4096 1.4336 0.2048 2.8672 0.4096 4.5056 0.6144h0.6144c1.6384 0.2048 3.2768 0.4096 4.7104 0.4096h6.144c1.4336 0 3.2768-0.2048 5.12-0.4096 1.8432-0.2048 3.6864-0.4096 5.12-0.6144 0.8192-0.2048 1.6384-0.2048 2.4576-0.4096 1.024-0.2048 2.048-0.4096 2.8672-0.6144 1.2288-0.4096 2.2528-0.6144 3.4816-1.024 0.8192-0.2048 1.8432-0.4096 2.6624-0.6144 1.8432-0.6144 3.6864-1.024 5.3248-1.8432 1.024-0.4096 1.8432-0.8192 2.6624-1.2288 0.8192-0.4096 1.8432-0.8192 2.8672-1.2288 0.8192-0.4096 1.6384-0.8192 2.4576-1.024 1.024-0.4096 2.048-1.024 2.6624-1.4336 0.6144-0.2048 1.024-0.6144 1.6384-0.8192 1.2288-0.6144 2.4576-1.4336 3.4816-2.048l0.6144-0.4096c1.4336-0.8192 3.072-1.8432 4.7104-3.072 1.6384-1.024 2.8672-2.048 4.5056-3.2768 0.8192-0.6144 1.6384-1.4336 2.4576-2.048 0.8192-0.6144 1.6384-1.2288 2.2528-2.048 1.4336-1.2288 2.8672-2.6624 4.5056-4.3008 1.4336-1.4336 2.8672-3.072 4.3008-4.7104 1.2288-1.4336 2.4576-3.072 3.8912-4.9152 1.024-1.4336 2.4576-3.2768 3.6864-5.12 1.024-1.6384 2.2528-3.4816 3.2768-5.3248 0.8192-1.4336 2.048-3.4816 2.8672-5.5296l0.6144-1.4336c0.6144-1.4336 1.2288-2.8672 1.8432-4.096l2.2528-6.3488c0.2048-1.024 0.6144-1.8432 0.8192-2.8672 0.4096-1.024 0.6144-2.2528 1.024-3.4816l0.4096-1.2288c0.4096-1.8432 0.8192-3.4816 1.2288-5.12 0.4096-2.4576 0.8192-4.7104 1.2288-7.168 0.4096-2.048 0.6144-4.3008 0.6144-6.5536 0.2048-2.2528 0.4096-4.5056 0.4096-6.5536 0-2.2528 0-4.7104-0.2048-6.7584l-0.6144-7.5776c-0.2048-2.2528-0.6144-4.7104-0.8192-6.7584-0.2048-1.8432-0.8192-3.8912-1.4336-6.7584-0.6144-2.6624-1.2288-4.7104-1.8432-6.7584-0.8192-2.2528-1.4336-4.5056-2.4576-6.7584-0.4096-1.2288-1.024-2.2528-1.4336-3.4816-0.6144-1.2288-1.024-2.4576-1.6384-3.6864-0.8192-1.8432-1.8432-3.8912-3.072-6.144l-0.2048-0.4096c-1.2288-2.4576-2.2528-4.3008-3.2768-6.144-1.4336-2.2528-2.6624-4.3008-4.096-6.144-1.6384-2.048-3.072-4.3008-4.7104-6.144-1.4336-1.8432-3.072-3.6864-4.9152-5.7344-1.8432-2.048-3.4816-3.6864-5.12-5.3248l-6.144-5.5296c-1.6384-1.4336-3.6864-2.8672-5.7344-4.5056-1.8432-1.4336-4.096-2.8672-6.5536-4.3008-2.048-1.4336-4.3008-2.6624-6.7584-4.096-1.4336-0.8192-3.2768-1.6384-5.12-2.6624l-1.8432-1.024c-2.4576-1.2288-4.9152-2.2528-6.9632-3.072l-0.6144-0.2048c-2.2528-1.024-4.5056-1.8432-6.7584-2.6624-1.2288-0.4096-2.6624-0.8192-4.096-1.2288-1.4336-0.4096-2.6624-0.8192-4.096-1.2288h-0.2048c-2.2528-0.6144-4.7104-1.2288-7.5776-1.8432-2.4576-0.6144-4.9152-0.8192-7.5776-1.2288-1.4336-0.2048-2.8672-0.2048-4.3008-0.4096-1.4336-0.2048-2.6624-0.2048-4.096-0.4096-2.6624-0.2048-5.3248-0.4096-7.9872-0.4096-3.072 0-5.5296 0-8.3968 0.2048-3.072 0.2048-5.7344 0.4096-8.3968 0.8192h-0.6144c-2.4576 0.2048-4.9152 0.4096-7.7824 1.024l-0.6144 0.2048c-2.6624 0.4096-5.3248 0.8192-7.5776 1.6384l-0.6144 0.2048c-1.6384 0.4096-3.4816 0.8192-5.5296 1.4336-0.8192 0.2048-1.6384 0.4096-2.4576 0.8192-0.8192 0.2048-1.4336 0.4096-2.2528 0.6144-2.048 0.6144-3.8912 1.2288-5.5296 2.048l-8.6016 3.6864c-2.2528 1.024-4.9152 2.2528-7.5776 3.6864l-0.2048 0.2048c-2.4576 1.2288-4.9152 2.6624-7.3728 4.3008-2.2528 1.4336-4.5056 2.8672-7.3728 4.9152-2.4576 1.8432-4.7104 3.4816-6.7584 5.12l-0.4096 0.4096c-2.048 1.4336-3.8912 3.2768-6.3488 5.5296-2.2528 2.048-4.3008 4.096-6.5536 6.3488-2.048 2.048-4.096 4.3008-5.9392 6.5536l-0.4096 0.4096c-1.6384 1.8432-3.2768 3.8912-4.9152 6.144l-0.4096 0.6144-5.3248 7.7824c-1.6384 2.2528-3.072 4.9152-4.5056 7.5776-1.6384 2.8672-3.072 5.5296-4.3008 8.192l-0.2048 0.2048c-1.4336 3.072-2.6624 5.7344-3.6864 8.192-1.2288 3.2768-2.4576 6.144-3.2768 8.8064-1.2288 3.4816-2.048 6.3488-2.6624 8.8064l-0.2048 0.6144c-0.6144 1.8432-1.024 3.6864-1.4336 5.7344-0.2048 1.2288-0.6144 2.2528-0.8192 3.4816-0.4096 1.8432-0.8192 3.8912-1.2288 6.144-0.2048 1.024-0.4096 2.048-0.6144 3.2768-0.6144 3.2768-0.8192 6.144-1.024 9.0112v0.6144c-0.4096 2.8672-0.6144 5.9392-0.6144 9.0112 0 3.4816 0 6.7584 0.2048 9.8304 0.2048 3.4816 0.4096 6.7584 0.8192 9.8304 0.4096 3.4816 0.8192 6.7584 1.4336 9.8304l0.2048 1.4336c0.4096 2.6624 1.024 5.5296 1.6384 8.192 0.6144 2.8672 1.4336 6.144 2.4576 9.6256l0.6144 1.8432c0.8192 2.6624 1.6384 5.12 2.4576 7.5776 1.024 3.072 2.4576 6.144 3.8912 9.216 1.024 2.2528 2.048 4.3008 3.2768 6.7584l1.2288 2.4576c1.4336 2.8672 3.2768 5.9392 4.9152 8.8064 1.6384 2.8672 3.4816 5.7344 5.5296 8.6016l1.2288 1.8432c1.6384 2.2528 3.072 4.3008 4.7104 6.3488 0.6144 0.8192 1.2288 1.6384 1.8432 2.2528 0.4096 0.6144 1.024 1.2288 1.4336 1.8432l0.6144 0.6144c0.4096 0.4096 1.024 1.2288 1.6384 1.8432 0.4096 0.4096 0.8192 1.024 1.4336 1.4336 0.6144 0.6144 1.024 1.2288 1.6384 1.8432 0.6144 0.6144 1.2288 1.2288 1.8432 2.048l4.096 4.3008c0.8192 1.024 1.8432 1.8432 2.8672 2.8672 0.8192 0.6144 1.6384 1.4336 2.2528 2.048 0.6144 0.6144 1.2288 1.024 1.8432 1.6384l4.3008 3.6864c0.6144 0.6144 1.2288 1.024 1.8432 1.4336 0.6144 0.6144 1.4336 1.024 2.048 1.6384 0.6144 0.4096 1.2288 1.024 2.048 1.4336 0.8192 0.6144 1.4336 1.024 2.048 1.6384l0.6144 0.6144c1.024 0.8192 2.048 1.6384 3.2768 2.4576 0.8192 0.6144 1.8432 1.2288 2.6624 1.6384 0.6144 0.4096 1.4336 0.8192 2.048 1.4336l0.6144 0.4096c0.4096 0.4096 1.2288 0.8192 2.048 1.2288 0.8192 0.4096 1.4336 0.8192 2.2528 1.2288 1.4336 0.8192 2.8672 1.8432 4.096 2.4576 1.024 0.4096 1.8432 1.024 2.8672 1.6384 0.6144 0.4096 1.4336 0.8192 2.048 1.024l1.4336 0.6144c1.024 0.6144 2.048 1.024 2.8672 1.4336 1.8432 0.6144 3.8912 1.6384 5.9392 2.6624l1.2288 0.6144c1.2288 0.6144 2.048 1.024 3.072 1.2288l1.024 0.4096c1.4336 0.6144 2.6624 1.024 4.3008 1.6384l0.4096 0.2048c1.4336 0.6144 3.072 1.024 4.9152 1.6384l2.4576 0.6144c1.024 0.2048 2.2528 0.6144 3.2768 1.024 1.6384 0.6144 3.2768 1.024 4.5056 1.4336l1.024 0.2048c1.4336 0.4096 2.4576 0.8192 4.3008 1.024 2.048 0.4096 4.096 0.8192 5.9392 1.2288 0.8192 0.2048 1.4336 0.2048 2.2528 0.4096 1.024 0.2048 2.048 0.4096 2.8672 0.6144 0.8192 0.2048 1.8432 0.2048 2.8672 0.4096 0.8192 0.2048 1.6384 0.2048 2.4576 0.4096l5.7344 0.6144c0.8192 0 1.4336 0.2048 2.2528 0.2048 1.2288 0 2.4576 0.2048 3.4816 0.2048h0.4096c1.6384 0.2048 3.072 0.2048 4.3008 0.2048h1.024c1.6384 0.2048 3.072 0.2048 4.9152 0.2048h5.9392c1.8432 0 3.4816 0 4.9152-0.2048 1.2288-0.2048 2.2528-0.2048 3.4816-0.2048 0.8192 0 1.6384 0 2.4576-0.2048l5.9392-0.6144c1.8432-0.2048 3.2768-0.4096 4.9152-0.6144 1.2288-0.2048 2.2528-0.4096 3.4816-0.6144 0.8192-0.2048 1.6384-0.2048 2.4576-0.4096 2.048-0.4096 3.8912-0.8192 5.7344-1.2288 1.024-0.2048 2.048-0.4096 2.8672-0.6144 1.024-0.2048 1.8432-0.4096 2.8672-0.6144l0.8192-0.2048c1.4336-0.2048 2.8672-0.6144 3.8912-1.024l1.024-0.2048c1.2288-0.2048 2.8672-0.8192 4.7104-1.4336 1.024-0.4096 2.048-0.6144 3.072-1.024 0.8192-0.2048 1.8432-0.6144 2.6624-0.8192h0.2048c1.024-0.2048 1.8432-0.6144 2.6624-1.024 0.8192-0.2048 1.4336-0.6144 2.2528-0.8192 1.024-0.4096 1.8432-0.8192 2.6624-1.024 0.8192-0.2048 1.6384-0.6144 2.2528-1.024l5.5296-2.4576c0.8192-0.4096 1.6384-0.8192 2.2528-1.2288 1.024-0.4096 2.048-1.024 2.8672-1.4336 0.4096-0.2048 1.024-0.4096 1.6384-0.8192 1.024-0.4096 2.048-1.024 3.072-1.6384l0.8192-0.4096c0.8192-0.4096 1.8432-1.024 2.8672-1.6384 0.4096-0.2048 1.024-0.6144 1.6384-0.8192 1.8432-1.024 3.4816-1.8432 4.9152-2.8672 0.8192-0.4096 1.6384-1.024 2.4576-1.6384 0.8192-0.6144 1.8432-1.2288 2.6624-1.6384l1.2288-0.8192c1.2288-0.8192 2.2528-1.4336 3.2768-2.2528l9.8304-7.3728c0.6144-0.4096 1.2288-1.024 1.8432-1.4336 0.8192-0.8192 1.6384-1.4336 2.6624-2.2528l4.096-3.6864c1.4336-1.4336 2.8672-2.8672 4.7104-4.5056 1.4336-1.2288 2.6624-2.4576 4.096-3.8912 0.6144-0.6144 1.2288-1.2288 1.8432-2.048 0.6144-0.8192 1.4336-1.4336 2.048-2.2528l4.3008-4.9152c1.024-1.024 2.2528-2.4576 3.072-3.6864 0.6144-1.024 1.4336-1.8432 2.2528-2.6624 0.6144-0.6144 1.024-1.2288 1.6384-2.048 1.2288-2.048 2.6624-3.6864 3.8912-5.3248 0.6144-0.8192 1.2288-1.6384 1.6384-2.4576 0.6144-0.8192 1.2288-1.6384 1.8432-2.6624 0.4096-0.4096 0.6144-1.024 1.024-1.4336 0.8192-1.024 1.4336-2.048 1.8432-2.8672l1.2288-1.8432c0.8192-1.2288 1.4336-2.4576 2.048-3.4816l3.072-5.5296 1.2288-2.4576c0.6144-1.024 1.024-2.048 1.6384-3.072 0.8192-1.6384 1.8432-3.2768 2.4576-4.9152l0.4096-0.8192c0.6144-1.024 1.024-2.2528 1.6384-3.4816l0.6144-1.4336c0.8192-1.6384 1.6384-3.4816 2.2528-5.3248 0.4096-1.024 0.6144-1.8432 1.024-2.6624 0.4096-1.024 0.6144-1.8432 1.024-2.8672 0.4096-1.024 0.6144-2.048 1.024-3.072 0.2048-0.8192 0.6144-1.6384 0.8192-2.4576v-0.2048c0.6144-1.8432 1.2288-3.6864 1.8432-5.7344v-0.2048c0.6144-1.8432 1.024-3.4816 1.2288-4.7104 0.2048-1.2288 0.6144-2.4576 0.8192-3.4816 0.2048-0.8192 0.4096-1.6384 0.6144-2.6624l0.2048-1.024c0.4096-1.024 0.6144-2.4576 0.8192-3.8912l0.4096-1.6384c0.4096-1.8432 0.8192-3.6864 1.2288-5.7344v-0.2048c0.2048-1.2288 0.6144-2.8672 0.8192-4.3008l-0.4096-154.8288v-206.848c0-0.4096 3.072-33.792-10.24-79.872-12.288-42.3936-41.1648-104.2432-109.9776-159.3344C686.08 87.6544 454.0416 151.7568 408.7808 165.888c-5.7344 1.8432-11.8784 0.4096-16.384-3.4816-4.5056-4.096-6.3488-10.4448-4.9152-16.384l20.48-82.1248c0.4096-1.6384-0.2048-2.6624-0.6144-3.072-0.4096-0.6144-1.2288-1.2288-2.6624-1.2288-48.3328 2.048-173.4656 22.1184-291.6352 161.792-39.7312 55.7056-52.224 101.7856-36.864 136.8064C99.5328 411.648 180.8384 424.3456 188.416 425.5744l262.144 0.8192c5.7344 0 10.24 4.7104 10.24 10.24 0 5.7344-4.5056 10.24-10.24 10.24l-263.3728-0.8192h-0.6144c-4.096-0.4096-99.9424-13.312-129.024-79.4624-18.432-42.1888-5.3248-95.0272 39.1168-157.0816l0.4096-0.6144c123.6992-146.8416 255.7952-167.7312 306.7904-169.984 7.5776-0.4096 14.7456 2.8672 19.456 8.6016 4.7104 5.9392 6.5536 13.5168 4.7104 21.0944l-18.8416 75.776C468.1728 126.7712 696.32 69.632 842.1376 178.9952l0.2048 0.2048c73.3184 58.7776 104.2432 125.1328 117.1456 170.5984 13.312 46.8992 11.264 81.1008 10.8544 86.016v206.4384l0.4096 155.8528v0.6144c-0.2048 2.6624-0.8192 5.12-1.2288 6.9632-0.4096 2.048-0.8192 4.096-1.2288 5.9392l-0.2048 1.4336c-0.4096 1.4336-0.6144 3.2768-1.2288 4.9152-0.2048 1.024-0.4096 2.048-0.8192 3.072-0.2048 0.8192-0.4096 1.6384-0.6144 2.6624-0.4096 2.048-1.024 4.3008-1.8432 6.9632-0.6144 2.048-1.2288 4.096-1.8432 5.9392-0.4096 1.2288-0.8192 2.2528-1.2288 3.4816-0.2048 0.8192-0.6144 1.6384-0.8192 2.4576l-0.2048 0.8192c-0.4096 1.024-0.6144 1.8432-1.024 2.6624-0.4096 1.024-0.8192 2.048-1.2288 3.2768-0.8192 2.2528-1.6384 4.096-2.6624 6.144l-0.6144 1.2288c-0.6144 1.4336-1.4336 3.072-2.2528 4.9152-0.8192 2.048-2.048 4.096-3.072 6.144l-1.2288 2.4576c-0.6144 1.024-1.024 2.048-1.6384 3.072l-3.072 5.5296c-0.8192 1.6384-1.8432 3.072-2.6624 4.5056l-0.6144 1.024c-1.024 1.6384-1.8432 3.072-2.8672 4.3008-0.4096 0.4096-0.6144 1.024-1.024 1.4336l-0.4096 0.4096c-0.6144 0.8192-1.024 1.4336-1.6384 2.2528-0.6144 1.024-1.4336 1.8432-2.048 2.8672-1.2288 1.6384-2.2528 3.072-3.2768 4.7104l-0.4096 0.4096c-0.6144 1.024-1.4336 1.8432-2.2528 2.8672-0.6144 0.6144-1.2288 1.4336-1.6384 2.048-1.4336 1.8432-3.072 3.8912-4.7104 5.5296l-4.3008 4.9152c-0.6144 0.6144-1.2288 1.2288-1.8432 2.048l-2.4576 2.4576c-1.4336 1.4336-3.072 3.072-4.9152 4.7104-1.4336 1.2288-2.6624 2.4576-4.096 3.8912l-0.4096 0.4096-5.3248 4.5056c-0.6144 0.4096-1.2288 1.024-1.8432 1.4336-1.024 0.8192-1.8432 1.6384-2.8672 2.4576l-9.8304 7.3728c-1.4336 1.024-2.8672 2.048-4.3008 2.8672l-1.6384 1.024c-0.8192 0.4096-1.6384 1.024-2.4576 1.6384-0.8192 0.6144-1.8432 1.2288-2.6624 1.6384-1.8432 1.2288-3.8912 2.2528-5.7344 3.2768l-1.2288 0.8192c-1.2288 0.8192-2.6624 1.6384-4.3008 2.2528-1.4336 0.8192-2.6624 1.4336-3.8912 1.8432-0.6144 0.2048-1.024 0.4096-1.4336 0.8192l-0.4096 0.2048c-0.8192 0.4096-1.6384 0.8192-2.2528 1.2288-1.024 0.6144-2.048 1.024-3.2768 1.4336l-5.5296 2.4576c-1.024 0.4096-2.048 0.8192-3.2768 1.2288-0.8192 0.2048-1.6384 0.6144-2.2528 1.024l-1.024 0.4096c-0.6144 0.2048-1.2288 0.4096-2.048 0.6144-1.2288 0.4096-2.4576 1.024-3.8912 1.4336-1.024 0.2048-1.8432 0.6144-2.8672 1.024-1.024 0.2048-1.8432 0.6144-2.6624 0.8192-2.2528 0.8192-4.5056 1.4336-6.3488 1.8432-1.8432 0.6144-3.6864 1.024-5.3248 1.4336l-0.8192 0.2048-3.072 0.6144c-1.024 0.2048-1.8432 0.4096-2.6624 0.6144-1.8432 0.4096-4.096 0.8192-6.144 1.2288-1.2288 0.2048-2.2528 0.4096-3.4816 0.6144-0.8192 0.2048-1.6384 0.2048-2.4576 0.4096-2.4576 0.4096-4.7104 0.8192-6.9632 1.024l-5.9392 0.6144c-1.2288 0.2048-2.2528 0.2048-3.4816 0.2048-0.8192 0-1.6384 0-2.4576 0.2048-2.8672 0.6144-4.9152 0.6144-7.168 0.6144z" fill="" p-id="10856"></path><path d="M718.848 446.464l-158.72-0.8192c-5.7344 0-10.24-4.7104-10.24-10.24 0-5.7344 4.7104-10.24 10.24-10.24l158.72 0.8192c5.7344 0 10.24 4.7104 10.24 10.24 0 5.7344-4.5056 10.24-10.24 10.24z" fill="" p-id="10857"></path><path d="M229.1712 355.9424c-39.936 0-72.2944-32.3584-72.2944-72.2944s32.3584-72.2944 72.2944-72.2944c39.936 0 72.2944 32.3584 72.2944 72.2944s-32.3584 72.2944-72.2944 72.2944z m0-124.1088c-28.672 0-51.8144 23.1424-51.8144 51.8144s23.1424 51.8144 51.8144 51.8144 51.8144-23.1424 51.8144-51.8144-23.1424-51.8144-51.8144-51.8144z" fill="" p-id="10858"></path><path d="M229.1712 283.648m-20.6848 0a20.6848 20.6848 0 1 0 41.3696 0 20.6848 20.6848 0 1 0-41.3696 0Z" fill="" p-id="10859"></path></svg>